<svg xmlns="http://www.w3.org/2000/svg" xmlns:xlink="http://www.w3.org/1999/xlink" version="1.1"
    x="0px" y="0px" viewBox="0 0 100 125" enable-background="new 0 0 100 100"
    xml:space="preserve">
  <path d="M63.036,16.021c-0.266,1.489-1.128,3.249-2.953,5.271c-0.098,0.103-3.405,3.577-8.311,8.607  c0.111,0.131,0.23,0.254,0.361,0.377c1.259,1.165,2.511,2.346,3.758,3.54c0.357-0.899,0.894-1.756,1.612-2.502  c1.091-1.136,1.977-2.035,2.814-2.884c1.264-1.288,2.457-2.499,4.098-4.254c1.772-1.875,3.298-3.495,3.195-4.951  c-0.045-0.652-0.418-1.35-1.124-2.104C65.657,16.649,64.455,16.14,63.036,16.021z"/><path d="M86.266,40.38c-0.455,1.965-1.641,4.102-4.098,6.194c-0.033,0.029-2.584,2.174-5.378,4.738  c-1.382,1.268-3.126,1.961-4.906,1.961c-0.935,0-1.821-0.201-2.621-0.566c-0.538,1.206-0.628,2.457-0.46,3.466  c0.287,1.681,1.239,2.941,2.556,3.388c1.37,0.46,3.044,0.008,4.816-1.28c2.941-2.65,6.022-5.271,9.308-7.921  c3.507-2.851,4.918-5.296,4.389-7.769C89.097,41.766,87.862,40.741,86.266,40.38z"/><path d="M70.851,61.075c-1.883-0.636-3.236-2.367-3.618-4.635c-0.095-0.558-0.123-1.111-0.095-1.666  c-8.073,7.88-18.341,18.185-25.335,26.213c-0.062,0.353-0.181,1.567,0.611,3.048c2.038,1.563,4.122,3.068,6.255,4.516  c8.344-10.883,15.814-19.338,24.211-27.242c-0.152,0.012-0.295,0.021-0.431,0.021C71.79,61.329,71.253,61.215,70.851,61.075z"/><path d="M40.478,83.547c-0.144-0.452-0.226-0.87-0.271-1.239c-0.107-0.902,0.004-1.542,0.045-1.723  c0.049-0.23,0.127-0.394,0.226-0.509v-0.004c7.573-8.709,19.034-20.121,27.398-28.243c0.024-0.029,0.049-0.045,0.07-0.074  c0.172-0.16,0.34-0.324,0.504-0.488c0.197-0.189,0.39-0.373,0.583-0.558c0.468-0.455,0.923-0.894,1.366-1.321  c4.775-4.607,8.061-7.679,8.151-7.765c2.125-1.916,4.262-2.904,6.358-2.958c0.066-0.004,0.127-0.016,0.189-0.016  c0.201,0,0.402,0.012,0.599,0.029c0.275,0.025,0.533,0.066,0.796,0.119c0.275,0.053,0.542,0.127,0.8,0.209  c-0.255-0.34-0.525-0.693-0.8-1.062c-0.275-0.361-0.554-0.73-0.849-1.12c-0.025-0.033-0.053-0.061-0.086-0.095  c-0.361-0.451-0.73-0.828-1.103-1.144c-2.42-2.031-5.14-1.362-8.77,2.063c-1.436,1.321-1.858,1.645-2.232,1.936  c-0.373,0.292-0.693,0.538-2.17,1.936c-1.444,1.366-3.274,2.121-5.148,2.121c-1.686,0-3.237-0.632-4.364-1.776  c-1.571-1.608-3.175-3.2-4.795-4.783c-0.275-0.271-0.554-0.541-0.833-0.812c-0.238-0.234-0.484-0.464-0.722-0.697  c-1.448-1.387-2.904-2.769-4.369-4.123c-0.144-0.131-0.275-0.267-0.398-0.406c-0.184-0.201-0.353-0.414-0.5-0.628  c-0.16-0.23-0.299-0.472-0.423-0.718c-1.124-2.223-0.701-4.939,1.288-7.162c2.56-2.789,3.45-3.938,3.462-3.95  c2.146-2.486,4.492-3.864,7.011-4.143c0.262-0.029,0.529-0.045,0.796-0.049c0.058,0,0.107-0.008,0.16-0.008  c0.226,0,0.443,0.021,0.665,0.041c0.029,0,0.058,0,0.086,0c0.013,0.004,0.025,0.004,0.041,0.004  c0.057,0.008,0.119,0.004,0.176,0.012c-0.423-0.336-0.89-0.706-1.391-1.103c-0.336-0.267-0.689-0.546-1.066-0.841  c-0.234-0.176-0.476-0.332-0.71-0.476c-0.349-0.213-0.697-0.394-1.042-0.541C58.458,11.168,57.72,11,56.994,11  c-2.113,0-4.213,1.296-6.408,3.946c-12.048,15.399-21.918,24.33-36.956,36.32c-1.53,2.625,0.013,5.714,1.588,7.855l0.053,0.082  c2.868,5.078,12.59,20.687,26.836,27.181c-0.377-0.435-0.685-0.87-0.931-1.292C40.856,84.551,40.63,84.03,40.478,83.547z   M19.209,55.635l1.863,1.99l0.546,0.582l0.549,0.583l16.437,17.516l-1.165,1.091L20.973,59.852l-0.546-0.582l-0.546-0.583  l-1.838-1.957L19.209,55.635z"/>
</svg>
